<mxfile host="app.diagrams.net" modified="2022-09-07T20:03:24.917Z" agent="5.0 (Windows NT 10.0; Win64; x64) AppleWebKit/537.36 (KHTML, like Gecko) Chrome/105.0.0.0 Safari/537.36" etag="Qj4w1_irfHGTtLURV4lI" version="20.3.0" type="github">
  <diagram id="C5RBs43oDa-KdzZeNtuy" name="Page-1">
    <mxGraphModel dx="1583" dy="563" grid="1" gridSize="10" guides="1" tooltips="1" connect="1" arrows="1" fold="1" page="1" pageScale="1" pageWidth="827" pageHeight="1169" math="0" shadow="0">
      <root>
        <mxCell id="WIyWlLk6GJQsqaUBKTNV-0" />
        <mxCell id="WIyWlLk6GJQsqaUBKTNV-1" parent="WIyWlLk6GJQsqaUBKTNV-0" />
        <mxCell id="tYKw0Z54Xmcige_G44cB-1" value="" style="rounded=0;html=1;jettySize=auto;orthogonalLoop=1;fontSize=11;endArrow=block;endFill=0;endSize=8;strokeWidth=1;shadow=0;labelBackgroundColor=none;edgeStyle=orthogonalEdgeStyle;" edge="1" parent="WIyWlLk6GJQsqaUBKTNV-1" source="tYKw0Z54Xmcige_G44cB-2">
          <mxGeometry relative="1" as="geometry">
            <mxPoint x="210" y="130" as="targetPoint" />
          </mxGeometry>
        </mxCell>
        <mxCell id="tYKw0Z54Xmcige_G44cB-2" value="PRACTICA&amp;nbsp; 1&lt;br&gt;EJERCICIO 4" style="rounded=1;whiteSpace=wrap;html=1;fontSize=12;glass=0;strokeWidth=1;shadow=0;" vertex="1" parent="WIyWlLk6GJQsqaUBKTNV-1">
          <mxGeometry x="150" y="60" width="120" height="40" as="geometry" />
        </mxCell>
        <mxCell id="tYKw0Z54Xmcige_G44cB-3" value="" style="edgeStyle=orthogonalEdgeStyle;rounded=0;orthogonalLoop=1;jettySize=auto;html=1;" edge="1" parent="WIyWlLk6GJQsqaUBKTNV-1" source="tYKw0Z54Xmcige_G44cB-4" target="tYKw0Z54Xmcige_G44cB-6">
          <mxGeometry relative="1" as="geometry" />
        </mxCell>
        <mxCell id="tYKw0Z54Xmcige_G44cB-4" value="A = 0;&lt;br&gt;B = 0;&lt;br&gt;C = 0;&lt;br&gt;D=0;" style="rounded=0;whiteSpace=wrap;html=1;" vertex="1" parent="WIyWlLk6GJQsqaUBKTNV-1">
          <mxGeometry x="150" y="130" width="120" height="60" as="geometry" />
        </mxCell>
        <mxCell id="tYKw0Z54Xmcige_G44cB-5" value="" style="edgeStyle=orthogonalEdgeStyle;rounded=0;orthogonalLoop=1;jettySize=auto;html=1;" edge="1" parent="WIyWlLk6GJQsqaUBKTNV-1" source="tYKw0Z54Xmcige_G44cB-6">
          <mxGeometry relative="1" as="geometry">
            <mxPoint x="210" y="340" as="targetPoint" />
          </mxGeometry>
        </mxCell>
        <mxCell id="tYKw0Z54Xmcige_G44cB-6" value="BIT_VERDE&lt;br&gt;BIT_AZUL&lt;br&gt;BIT_ROJO" style="rounded=0;whiteSpace=wrap;html=1;" vertex="1" parent="WIyWlLk6GJQsqaUBKTNV-1">
          <mxGeometry x="150" y="230" width="120" height="60" as="geometry" />
        </mxCell>
        <mxCell id="tYKw0Z54Xmcige_G44cB-7" value="SEONFIGURAN LOS RGB" style="shape=waypoint;sketch=0;size=6;pointerEvents=1;points=[];fillColor=none;resizable=0;rotatable=0;perimeter=centerPerimeter;snapToPoint=1;" vertex="1" parent="WIyWlLk6GJQsqaUBKTNV-1">
          <mxGeometry x="355" y="240" width="40" height="40" as="geometry" />
        </mxCell>
        <mxCell id="tYKw0Z54Xmcige_G44cB-8" value="" style="edgeStyle=orthogonalEdgeStyle;rounded=0;orthogonalLoop=1;jettySize=auto;html=1;entryX=0.5;entryY=0;entryDx=0;entryDy=0;" edge="1" parent="WIyWlLk6GJQsqaUBKTNV-1" source="tYKw0Z54Xmcige_G44cB-9" target="tYKw0Z54Xmcige_G44cB-145">
          <mxGeometry relative="1" as="geometry">
            <mxPoint x="190" y="470" as="targetPoint" />
          </mxGeometry>
        </mxCell>
        <mxCell id="tYKw0Z54Xmcige_G44cB-9" value="BIT_VERDE(1)&lt;br&gt;BIT_AZUL(1)&lt;br&gt;BIT_ROJO(1)" style="rounded=0;whiteSpace=wrap;html=1;" vertex="1" parent="WIyWlLk6GJQsqaUBKTNV-1">
          <mxGeometry x="150" y="340" width="120" height="60" as="geometry" />
        </mxCell>
        <mxCell id="tYKw0Z54Xmcige_G44cB-10" value="SE CONFIGURAN APAGADOS" style="text;html=1;align=center;verticalAlign=middle;resizable=0;points=[];autosize=1;strokeColor=none;fillColor=none;" vertex="1" parent="WIyWlLk6GJQsqaUBKTNV-1">
          <mxGeometry x="290" y="350" width="190" height="30" as="geometry" />
        </mxCell>
        <mxCell id="tYKw0Z54Xmcige_G44cB-18" value="ENCIENDE LED VERDE TODO EL CICLO" style="text;html=1;align=center;verticalAlign=middle;resizable=0;points=[];autosize=1;strokeColor=none;fillColor=none;" vertex="1" parent="WIyWlLk6GJQsqaUBKTNV-1">
          <mxGeometry x="1050" y="700" width="250" height="30" as="geometry" />
        </mxCell>
        <mxCell id="tYKw0Z54Xmcige_G44cB-20" value="" style="edgeStyle=orthogonalEdgeStyle;rounded=0;orthogonalLoop=1;jettySize=auto;html=1;" edge="1" parent="WIyWlLk6GJQsqaUBKTNV-1" source="tYKw0Z54Xmcige_G44cB-21" target="tYKw0Z54Xmcige_G44cB-25">
          <mxGeometry relative="1" as="geometry" />
        </mxCell>
        <mxCell id="tYKw0Z54Xmcige_G44cB-21" value="DESDE= &quot; B = 0&quot;&lt;br&gt;&amp;nbsp;HASTA = &quot;B&amp;lt;3&quot;&lt;span style=&quot;white-space: pre;&quot;&gt;	&lt;/span&gt;&lt;br&gt;INCREMENTO= 1" style="shape=hexagon;perimeter=hexagonPerimeter2;whiteSpace=wrap;html=1;fixedSize=1;" vertex="1" parent="WIyWlLk6GJQsqaUBKTNV-1">
          <mxGeometry x="125" y="980" width="150" height="80" as="geometry" />
        </mxCell>
        <mxCell id="tYKw0Z54Xmcige_G44cB-22" value="" style="edgeStyle=orthogonalEdgeStyle;rounded=0;orthogonalLoop=1;jettySize=auto;html=1;" edge="1" parent="WIyWlLk6GJQsqaUBKTNV-1" source="tYKw0Z54Xmcige_G44cB-23" target="tYKw0Z54Xmcige_G44cB-36">
          <mxGeometry relative="1" as="geometry" />
        </mxCell>
        <mxCell id="tYKw0Z54Xmcige_G44cB-23" value="WAIT1_MS&lt;br&gt;(500)" style="rounded=0;whiteSpace=wrap;html=1;" vertex="1" parent="WIyWlLk6GJQsqaUBKTNV-1">
          <mxGeometry x="135" y="1220" width="120" height="60" as="geometry" />
        </mxCell>
        <mxCell id="tYKw0Z54Xmcige_G44cB-24" value="" style="edgeStyle=orthogonalEdgeStyle;rounded=0;orthogonalLoop=1;jettySize=auto;html=1;" edge="1" parent="WIyWlLk6GJQsqaUBKTNV-1" source="tYKw0Z54Xmcige_G44cB-25" target="tYKw0Z54Xmcige_G44cB-23">
          <mxGeometry relative="1" as="geometry" />
        </mxCell>
        <mxCell id="tYKw0Z54Xmcige_G44cB-25" value="VERDE_PUTVAL(0)" style="rounded=0;whiteSpace=wrap;html=1;" vertex="1" parent="WIyWlLk6GJQsqaUBKTNV-1">
          <mxGeometry x="135" y="1120" width="120" height="60" as="geometry" />
        </mxCell>
        <mxCell id="tYKw0Z54Xmcige_G44cB-26" value="ENCIENDE" style="text;html=1;align=center;verticalAlign=middle;resizable=0;points=[];autosize=1;strokeColor=none;fillColor=none;" vertex="1" parent="WIyWlLk6GJQsqaUBKTNV-1">
          <mxGeometry x="275" y="1070" width="90" height="30" as="geometry" />
        </mxCell>
        <mxCell id="tYKw0Z54Xmcige_G44cB-27" value="ESPERA" style="text;html=1;align=center;verticalAlign=middle;resizable=0;points=[];autosize=1;strokeColor=none;fillColor=none;" vertex="1" parent="WIyWlLk6GJQsqaUBKTNV-1">
          <mxGeometry x="285" y="1160" width="70" height="30" as="geometry" />
        </mxCell>
        <mxCell id="tYKw0Z54Xmcige_G44cB-28" value="" style="edgeStyle=orthogonalEdgeStyle;rounded=0;orthogonalLoop=1;jettySize=auto;html=1;" edge="1" parent="WIyWlLk6GJQsqaUBKTNV-1" source="tYKw0Z54Xmcige_G44cB-29" target="tYKw0Z54Xmcige_G44cB-33">
          <mxGeometry relative="1" as="geometry" />
        </mxCell>
        <mxCell id="tYKw0Z54Xmcige_G44cB-29" value="VERDE_PUTVAL(1)" style="rounded=0;whiteSpace=wrap;html=1;" vertex="1" parent="WIyWlLk6GJQsqaUBKTNV-1">
          <mxGeometry x="140" y="1475" width="120" height="60" as="geometry" />
        </mxCell>
        <mxCell id="tYKw0Z54Xmcige_G44cB-30" value="APAGA&lt;br&gt;" style="text;html=1;align=center;verticalAlign=middle;resizable=0;points=[];autosize=1;strokeColor=none;fillColor=none;" vertex="1" parent="WIyWlLk6GJQsqaUBKTNV-1">
          <mxGeometry x="275" y="1490" width="60" height="30" as="geometry" />
        </mxCell>
        <mxCell id="tYKw0Z54Xmcige_G44cB-31" value="" style="edgeStyle=orthogonalEdgeStyle;rounded=0;orthogonalLoop=1;jettySize=auto;html=1;" edge="1" parent="WIyWlLk6GJQsqaUBKTNV-1" source="tYKw0Z54Xmcige_G44cB-33" target="tYKw0Z54Xmcige_G44cB-34">
          <mxGeometry relative="1" as="geometry">
            <Array as="points">
              <mxPoint x="90" y="1605" />
              <mxPoint x="90" y="975" />
            </Array>
          </mxGeometry>
        </mxCell>
        <mxCell id="tYKw0Z54Xmcige_G44cB-32" value="" style="edgeStyle=orthogonalEdgeStyle;rounded=0;orthogonalLoop=1;jettySize=auto;html=1;" edge="1" parent="WIyWlLk6GJQsqaUBKTNV-1" source="tYKw0Z54Xmcige_G44cB-33" target="tYKw0Z54Xmcige_G44cB-48">
          <mxGeometry relative="1" as="geometry">
            <Array as="points">
              <mxPoint x="510" y="1470" />
              <mxPoint x="510" y="80" />
            </Array>
          </mxGeometry>
        </mxCell>
        <mxCell id="tYKw0Z54Xmcige_G44cB-33" value="WAIT1_MS&lt;br&gt;(500)" style="rounded=0;whiteSpace=wrap;html=1;" vertex="1" parent="WIyWlLk6GJQsqaUBKTNV-1">
          <mxGeometry x="140" y="1585" width="120" height="60" as="geometry" />
        </mxCell>
        <mxCell id="tYKw0Z54Xmcige_G44cB-34" value="" style="shape=waypoint;sketch=0;size=6;pointerEvents=1;points=[];fillColor=default;resizable=0;rotatable=0;perimeter=centerPerimeter;snapToPoint=1;rounded=0;" vertex="1" parent="WIyWlLk6GJQsqaUBKTNV-1">
          <mxGeometry x="100" y="1000" width="40" height="40" as="geometry" />
        </mxCell>
        <mxCell id="tYKw0Z54Xmcige_G44cB-35" value="" style="edgeStyle=orthogonalEdgeStyle;rounded=0;orthogonalLoop=1;jettySize=auto;html=1;" edge="1" parent="WIyWlLk6GJQsqaUBKTNV-1" source="tYKw0Z54Xmcige_G44cB-36" target="tYKw0Z54Xmcige_G44cB-29">
          <mxGeometry relative="1" as="geometry" />
        </mxCell>
        <mxCell id="tYKw0Z54Xmcige_G44cB-36" value="DISPLAY-UNIDADES_PUTVAL(0)&lt;br&gt;&lt;br&gt;DISPLAY-DECENAS_PUTVAL(0)" style="rounded=0;whiteSpace=wrap;html=1;" vertex="1" parent="WIyWlLk6GJQsqaUBKTNV-1">
          <mxGeometry x="135" y="1360" width="130" height="90" as="geometry" />
        </mxCell>
        <mxCell id="tYKw0Z54Xmcige_G44cB-37" value="" style="edgeStyle=orthogonalEdgeStyle;rounded=0;orthogonalLoop=1;jettySize=auto;html=1;" edge="1" parent="WIyWlLk6GJQsqaUBKTNV-1" source="tYKw0Z54Xmcige_G44cB-38" target="tYKw0Z54Xmcige_G44cB-42">
          <mxGeometry relative="1" as="geometry" />
        </mxCell>
        <mxCell id="tYKw0Z54Xmcige_G44cB-38" value="DESDE= &quot; C = 0&quot;&lt;br&gt;&amp;nbsp;HASTA = &quot;B&amp;lt;5&quot;&lt;span style=&quot;white-space: pre;&quot;&gt;	&lt;/span&gt;&lt;br&gt;INCREMENTO= 1" style="shape=hexagon;perimeter=hexagonPerimeter2;whiteSpace=wrap;html=1;fixedSize=1;" vertex="1" parent="WIyWlLk6GJQsqaUBKTNV-1">
          <mxGeometry x="554.9100000000001" y="50" width="150" height="80" as="geometry" />
        </mxCell>
        <mxCell id="tYKw0Z54Xmcige_G44cB-39" value="" style="edgeStyle=orthogonalEdgeStyle;rounded=0;orthogonalLoop=1;jettySize=auto;html=1;" edge="1" parent="WIyWlLk6GJQsqaUBKTNV-1" source="tYKw0Z54Xmcige_G44cB-40" target="tYKw0Z54Xmcige_G44cB-47">
          <mxGeometry relative="1" as="geometry" />
        </mxCell>
        <mxCell id="tYKw0Z54Xmcige_G44cB-40" value="WAIT1_MS&lt;br&gt;(500)" style="rounded=0;whiteSpace=wrap;html=1;" vertex="1" parent="WIyWlLk6GJQsqaUBKTNV-1">
          <mxGeometry x="554.9100000000001" y="280" width="120" height="60" as="geometry" />
        </mxCell>
        <mxCell id="tYKw0Z54Xmcige_G44cB-41" value="" style="edgeStyle=orthogonalEdgeStyle;rounded=0;orthogonalLoop=1;jettySize=auto;html=1;" edge="1" parent="WIyWlLk6GJQsqaUBKTNV-1" source="tYKw0Z54Xmcige_G44cB-42" target="tYKw0Z54Xmcige_G44cB-40">
          <mxGeometry relative="1" as="geometry" />
        </mxCell>
        <mxCell id="tYKw0Z54Xmcige_G44cB-42" value="VERDE_PUTVAL(0)&lt;br&gt;AZUL_PUTVAL(0)" style="rounded=0;whiteSpace=wrap;html=1;" vertex="1" parent="WIyWlLk6GJQsqaUBKTNV-1">
          <mxGeometry x="554.9100000000001" y="180" width="120" height="60" as="geometry" />
        </mxCell>
        <mxCell id="tYKw0Z54Xmcige_G44cB-43" value="ESPERA" style="text;html=1;align=center;verticalAlign=middle;resizable=0;points=[];autosize=1;strokeColor=none;fillColor=none;" vertex="1" parent="WIyWlLk6GJQsqaUBKTNV-1">
          <mxGeometry x="679.9100000000001" y="290" width="70" height="30" as="geometry" />
        </mxCell>
        <mxCell id="tYKw0Z54Xmcige_G44cB-44" value="APAGA&lt;br&gt;" style="text;html=1;align=center;verticalAlign=middle;resizable=0;points=[];autosize=1;strokeColor=none;fillColor=none;" vertex="1" parent="WIyWlLk6GJQsqaUBKTNV-1">
          <mxGeometry x="674.9100000000001" y="620" width="60" height="30" as="geometry" />
        </mxCell>
        <mxCell id="tYKw0Z54Xmcige_G44cB-45" value="" style="shape=waypoint;sketch=0;size=6;pointerEvents=1;points=[];fillColor=default;resizable=0;rotatable=0;perimeter=centerPerimeter;snapToPoint=1;rounded=0;" vertex="1" parent="WIyWlLk6GJQsqaUBKTNV-1">
          <mxGeometry x="529.9100000000001" y="70" width="40" height="40" as="geometry" />
        </mxCell>
        <mxCell id="tYKw0Z54Xmcige_G44cB-46" value="" style="edgeStyle=orthogonalEdgeStyle;rounded=0;orthogonalLoop=1;jettySize=auto;html=1;" edge="1" parent="WIyWlLk6GJQsqaUBKTNV-1" source="tYKw0Z54Xmcige_G44cB-47">
          <mxGeometry relative="1" as="geometry">
            <mxPoint x="614.9099999999999" y="590" as="targetPoint" />
          </mxGeometry>
        </mxCell>
        <mxCell id="tYKw0Z54Xmcige_G44cB-47" value="DISPLAY-UNIDADES_PUTVAL(C)&lt;br&gt;&lt;br&gt;DISPLAY-DECENAS_PUTVAL(0)" style="rounded=0;whiteSpace=wrap;html=1;" vertex="1" parent="WIyWlLk6GJQsqaUBKTNV-1">
          <mxGeometry x="549.9100000000001" y="400" width="130" height="90" as="geometry" />
        </mxCell>
        <mxCell id="tYKw0Z54Xmcige_G44cB-48" value="" style="shape=waypoint;sketch=0;size=6;pointerEvents=1;points=[];fillColor=default;resizable=0;rotatable=0;perimeter=centerPerimeter;snapToPoint=1;rounded=0;" vertex="1" parent="WIyWlLk6GJQsqaUBKTNV-1">
          <mxGeometry x="529.9100000000001" y="60" width="40" height="40" as="geometry" />
        </mxCell>
        <mxCell id="tYKw0Z54Xmcige_G44cB-49" value="ENCIENDE AMARILLO&lt;br&gt;" style="text;html=1;align=center;verticalAlign=middle;resizable=0;points=[];autosize=1;strokeColor=none;fillColor=none;" vertex="1" parent="WIyWlLk6GJQsqaUBKTNV-1">
          <mxGeometry x="674.91" y="200" width="150" height="30" as="geometry" />
        </mxCell>
        <mxCell id="tYKw0Z54Xmcige_G44cB-50" value="" style="edgeStyle=orthogonalEdgeStyle;rounded=0;orthogonalLoop=1;jettySize=auto;html=1;" edge="1" parent="WIyWlLk6GJQsqaUBKTNV-1" source="tYKw0Z54Xmcige_G44cB-52" target="tYKw0Z54Xmcige_G44cB-53">
          <mxGeometry relative="1" as="geometry">
            <Array as="points">
              <mxPoint x="750" y="620" />
              <mxPoint x="750" y="90" />
            </Array>
          </mxGeometry>
        </mxCell>
        <mxCell id="tYKw0Z54Xmcige_G44cB-51" value="" style="edgeStyle=orthogonalEdgeStyle;rounded=0;orthogonalLoop=1;jettySize=auto;html=1;" edge="1" parent="WIyWlLk6GJQsqaUBKTNV-1" source="tYKw0Z54Xmcige_G44cB-52" target="tYKw0Z54Xmcige_G44cB-69">
          <mxGeometry relative="1" as="geometry">
            <Array as="points">
              <mxPoint x="615" y="710" />
              <mxPoint x="760" y="710" />
            </Array>
          </mxGeometry>
        </mxCell>
        <mxCell id="tYKw0Z54Xmcige_G44cB-52" value="VERDE_PUTVAL(1)&lt;br&gt;AZUL_PUTVAL(1)" style="rounded=0;whiteSpace=wrap;html=1;" vertex="1" parent="WIyWlLk6GJQsqaUBKTNV-1">
          <mxGeometry x="554.9100000000001" y="590" width="120" height="60" as="geometry" />
        </mxCell>
        <mxCell id="tYKw0Z54Xmcige_G44cB-53" value="" style="shape=waypoint;sketch=0;size=6;pointerEvents=1;points=[];fillColor=default;resizable=0;rotatable=0;perimeter=centerPerimeter;snapToPoint=1;rounded=0;" vertex="1" parent="WIyWlLk6GJQsqaUBKTNV-1">
          <mxGeometry x="679.9100000000001" y="70" width="40" height="40" as="geometry" />
        </mxCell>
        <mxCell id="tYKw0Z54Xmcige_G44cB-54" value="DESDE= &quot; A = 0&quot;&lt;br&gt;&amp;nbsp;HASTA = &quot;A&amp;lt;=9&quot;&lt;span style=&quot;white-space: pre;&quot;&gt;	&lt;/span&gt;&lt;br&gt;INCREMENTO= 1" style="shape=hexagon;perimeter=hexagonPerimeter2;whiteSpace=wrap;html=1;fixedSize=1;" vertex="1" parent="WIyWlLk6GJQsqaUBKTNV-1">
          <mxGeometry x="694.92" y="800" width="150" height="80" as="geometry" />
        </mxCell>
        <mxCell id="tYKw0Z54Xmcige_G44cB-55" value="" style="edgeStyle=orthogonalEdgeStyle;rounded=0;orthogonalLoop=1;jettySize=auto;html=1;exitX=1;exitY=0.5;exitDx=0;exitDy=0;" edge="1" parent="WIyWlLk6GJQsqaUBKTNV-1" source="tYKw0Z54Xmcige_G44cB-68" target="tYKw0Z54Xmcige_G44cB-56">
          <mxGeometry relative="1" as="geometry">
            <mxPoint x="1049.92" y="919.9999999999999" as="sourcePoint" />
            <Array as="points">
              <mxPoint x="1090" y="1055" />
              <mxPoint x="1090" y="840" />
            </Array>
          </mxGeometry>
        </mxCell>
        <mxCell id="tYKw0Z54Xmcige_G44cB-56" value="" style="shape=waypoint;sketch=0;size=6;pointerEvents=1;points=[];fillColor=default;resizable=0;rotatable=0;perimeter=centerPerimeter;snapToPoint=1;rounded=1;" vertex="1" parent="WIyWlLk6GJQsqaUBKTNV-1">
          <mxGeometry x="810" y="820" width="40" height="40" as="geometry" />
        </mxCell>
        <mxCell id="tYKw0Z54Xmcige_G44cB-57" value="" style="edgeStyle=orthogonalEdgeStyle;rounded=0;orthogonalLoop=1;jettySize=auto;html=1;" edge="1" parent="WIyWlLk6GJQsqaUBKTNV-1" target="tYKw0Z54Xmcige_G44cB-59">
          <mxGeometry relative="1" as="geometry">
            <mxPoint x="769.9200000000001" y="880" as="sourcePoint" />
          </mxGeometry>
        </mxCell>
        <mxCell id="tYKw0Z54Xmcige_G44cB-58" value="" style="edgeStyle=orthogonalEdgeStyle;rounded=0;orthogonalLoop=1;jettySize=auto;html=1;" edge="1" parent="WIyWlLk6GJQsqaUBKTNV-1" source="tYKw0Z54Xmcige_G44cB-59" target="tYKw0Z54Xmcige_G44cB-62">
          <mxGeometry relative="1" as="geometry" />
        </mxCell>
        <mxCell id="tYKw0Z54Xmcige_G44cB-59" value="DISPLAY-DECENAS_PUTVAL(A)" style="rounded=0;whiteSpace=wrap;html=1;" vertex="1" parent="WIyWlLk6GJQsqaUBKTNV-1">
          <mxGeometry x="704.92" y="920" width="130" height="60" as="geometry" />
        </mxCell>
        <mxCell id="tYKw0Z54Xmcige_G44cB-60" value="" style="shape=waypoint;sketch=0;size=6;pointerEvents=1;points=[];fillColor=default;resizable=0;rotatable=0;perimeter=centerPerimeter;snapToPoint=1;rounded=0;" vertex="1" parent="WIyWlLk6GJQsqaUBKTNV-1">
          <mxGeometry x="669.92" y="820" width="40" height="40" as="geometry" />
        </mxCell>
        <mxCell id="tYKw0Z54Xmcige_G44cB-61" value="" style="edgeStyle=orthogonalEdgeStyle;rounded=0;orthogonalLoop=1;jettySize=auto;html=1;" edge="1" parent="WIyWlLk6GJQsqaUBKTNV-1" source="tYKw0Z54Xmcige_G44cB-62" target="tYKw0Z54Xmcige_G44cB-66">
          <mxGeometry relative="1" as="geometry" />
        </mxCell>
        <mxCell id="tYKw0Z54Xmcige_G44cB-62" value="DESDE= &quot; B = 0&quot;&lt;br&gt;&amp;nbsp;HASTA = &quot;B&amp;lt;=9&quot;&lt;span style=&quot;white-space: pre;&quot;&gt;	&lt;/span&gt;&lt;br&gt;INCREMENTO= 1" style="shape=hexagon;perimeter=hexagonPerimeter2;whiteSpace=wrap;html=1;fixedSize=1;" vertex="1" parent="WIyWlLk6GJQsqaUBKTNV-1">
          <mxGeometry x="694.92" y="1015" width="150" height="80" as="geometry" />
        </mxCell>
        <mxCell id="tYKw0Z54Xmcige_G44cB-63" value="" style="edgeStyle=orthogonalEdgeStyle;rounded=0;orthogonalLoop=1;jettySize=auto;html=1;" edge="1" parent="WIyWlLk6GJQsqaUBKTNV-1" source="tYKw0Z54Xmcige_G44cB-66" target="tYKw0Z54Xmcige_G44cB-67">
          <mxGeometry relative="1" as="geometry">
            <Array as="points">
              <mxPoint x="629.92" y="1190" />
              <mxPoint x="629.92" y="840" />
            </Array>
          </mxGeometry>
        </mxCell>
        <mxCell id="tYKw0Z54Xmcige_G44cB-64" value="" style="edgeStyle=orthogonalEdgeStyle;rounded=0;orthogonalLoop=1;jettySize=auto;html=1;" edge="1" parent="WIyWlLk6GJQsqaUBKTNV-1" source="tYKw0Z54Xmcige_G44cB-66" target="tYKw0Z54Xmcige_G44cB-72">
          <mxGeometry relative="1" as="geometry">
            <Array as="points">
              <mxPoint x="910" y="1195" />
              <mxPoint x="910" y="930" />
            </Array>
          </mxGeometry>
        </mxCell>
        <mxCell id="tYKw0Z54Xmcige_G44cB-65" value="" style="edgeStyle=orthogonalEdgeStyle;rounded=0;orthogonalLoop=1;jettySize=auto;html=1;entryX=0.5;entryY=0;entryDx=0;entryDy=0;" edge="1" parent="WIyWlLk6GJQsqaUBKTNV-1" source="tYKw0Z54Xmcige_G44cB-66" target="tYKw0Z54Xmcige_G44cB-74">
          <mxGeometry relative="1" as="geometry">
            <mxPoint x="760" y="1260" as="targetPoint" />
          </mxGeometry>
        </mxCell>
        <mxCell id="tYKw0Z54Xmcige_G44cB-66" value="DISPLAY-UNIDADES_PUTVAL(B)" style="rounded=0;whiteSpace=wrap;html=1;" vertex="1" parent="WIyWlLk6GJQsqaUBKTNV-1">
          <mxGeometry x="704.92" y="1170" width="130" height="50" as="geometry" />
        </mxCell>
        <mxCell id="tYKw0Z54Xmcige_G44cB-67" value="" style="shape=waypoint;sketch=0;size=6;pointerEvents=1;points=[];fillColor=default;resizable=0;rotatable=0;perimeter=centerPerimeter;snapToPoint=1;rounded=0;" vertex="1" parent="WIyWlLk6GJQsqaUBKTNV-1">
          <mxGeometry x="669.92" y="820" width="40" height="40" as="geometry" />
        </mxCell>
        <mxCell id="tYKw0Z54Xmcige_G44cB-68" value="WAIT(500)" style="rounded=1;whiteSpace=wrap;html=1;" vertex="1" parent="WIyWlLk6GJQsqaUBKTNV-1">
          <mxGeometry x="923.92" y="1025" width="120" height="60" as="geometry" />
        </mxCell>
        <mxCell id="tYKw0Z54Xmcige_G44cB-69" value="" style="shape=waypoint;sketch=0;size=6;pointerEvents=1;points=[];fillColor=default;resizable=0;rotatable=0;perimeter=centerPerimeter;snapToPoint=1;rounded=0;" vertex="1" parent="WIyWlLk6GJQsqaUBKTNV-1">
          <mxGeometry x="740.0000000000001" y="780" width="40" height="40" as="geometry" />
        </mxCell>
        <mxCell id="tYKw0Z54Xmcige_G44cB-70" value="" style="edgeStyle=orthogonalEdgeStyle;rounded=0;orthogonalLoop=1;jettySize=auto;html=1;" edge="1" parent="WIyWlLk6GJQsqaUBKTNV-1" source="tYKw0Z54Xmcige_G44cB-71" target="tYKw0Z54Xmcige_G44cB-68">
          <mxGeometry relative="1" as="geometry" />
        </mxCell>
        <mxCell id="tYKw0Z54Xmcige_G44cB-71" value="&amp;nbsp;ROJO_PUTVAL(0)" style="rounded=0;whiteSpace=wrap;html=1;" vertex="1" parent="WIyWlLk6GJQsqaUBKTNV-1">
          <mxGeometry x="924.92" y="900" width="120" height="60" as="geometry" />
        </mxCell>
        <mxCell id="tYKw0Z54Xmcige_G44cB-72" value="" style="shape=waypoint;sketch=0;size=6;pointerEvents=1;points=[];fillColor=default;resizable=0;rotatable=0;perimeter=centerPerimeter;snapToPoint=1;rounded=0;" vertex="1" parent="WIyWlLk6GJQsqaUBKTNV-1">
          <mxGeometry x="900" y="910" width="40" height="40" as="geometry" />
        </mxCell>
        <mxCell id="tYKw0Z54Xmcige_G44cB-73" value="" style="edgeStyle=orthogonalEdgeStyle;rounded=0;orthogonalLoop=1;jettySize=auto;html=1;strokeColor=#FF0000;" edge="1" parent="WIyWlLk6GJQsqaUBKTNV-1" source="tYKw0Z54Xmcige_G44cB-74" target="tYKw0Z54Xmcige_G44cB-89">
          <mxGeometry relative="1" as="geometry">
            <Array as="points">
              <mxPoint x="20" y="1310" />
              <mxPoint x="20" y="250" />
            </Array>
          </mxGeometry>
        </mxCell>
        <mxCell id="tYKw0Z54Xmcige_G44cB-163" value="Text" style="edgeLabel;html=1;align=center;verticalAlign=middle;resizable=0;points=[];" vertex="1" connectable="0" parent="tYKw0Z54Xmcige_G44cB-73">
          <mxGeometry x="-0.711" y="-2" relative="1" as="geometry">
            <mxPoint as="offset" />
          </mxGeometry>
        </mxCell>
        <mxCell id="tYKw0Z54Xmcige_G44cB-74" value="DESDE= &quot; A = 0&quot;&lt;br&gt;&amp;nbsp;HASTA = &quot;A&amp;lt;=3&quot;&lt;span style=&quot;white-space: pre;&quot;&gt;	&lt;/span&gt;&lt;br&gt;INCREMENTO= 1" style="shape=hexagon;perimeter=hexagonPerimeter2;whiteSpace=wrap;html=1;fixedSize=1;" vertex="1" parent="WIyWlLk6GJQsqaUBKTNV-1">
          <mxGeometry x="675" y="1280" width="150" height="80" as="geometry" />
        </mxCell>
        <mxCell id="tYKw0Z54Xmcige_G44cB-75" value="" style="edgeStyle=orthogonalEdgeStyle;rounded=0;orthogonalLoop=1;jettySize=auto;html=1;" edge="1" parent="WIyWlLk6GJQsqaUBKTNV-1" target="tYKw0Z54Xmcige_G44cB-76">
          <mxGeometry relative="1" as="geometry">
            <mxPoint x="1030" y="1400" as="sourcePoint" />
            <Array as="points">
              <mxPoint x="1070" y="1400" />
              <mxPoint x="1070" y="1290" />
            </Array>
          </mxGeometry>
        </mxCell>
        <mxCell id="tYKw0Z54Xmcige_G44cB-76" value="" style="shape=waypoint;sketch=0;size=6;pointerEvents=1;points=[];fillColor=default;resizable=0;rotatable=0;perimeter=centerPerimeter;snapToPoint=1;rounded=1;" vertex="1" parent="WIyWlLk6GJQsqaUBKTNV-1">
          <mxGeometry x="790" y="1270" width="40" height="40" as="geometry" />
        </mxCell>
        <mxCell id="tYKw0Z54Xmcige_G44cB-77" value="" style="edgeStyle=orthogonalEdgeStyle;rounded=0;orthogonalLoop=1;jettySize=auto;html=1;" edge="1" parent="WIyWlLk6GJQsqaUBKTNV-1" target="tYKw0Z54Xmcige_G44cB-79">
          <mxGeometry relative="1" as="geometry">
            <mxPoint x="750" y="1360" as="sourcePoint" />
          </mxGeometry>
        </mxCell>
        <mxCell id="tYKw0Z54Xmcige_G44cB-78" value="" style="edgeStyle=orthogonalEdgeStyle;rounded=0;orthogonalLoop=1;jettySize=auto;html=1;" edge="1" parent="WIyWlLk6GJQsqaUBKTNV-1" source="tYKw0Z54Xmcige_G44cB-79" target="tYKw0Z54Xmcige_G44cB-82">
          <mxGeometry relative="1" as="geometry" />
        </mxCell>
        <mxCell id="tYKw0Z54Xmcige_G44cB-79" value="DISPLAY-DECENAS_PUTVAL(0)" style="rounded=0;whiteSpace=wrap;html=1;" vertex="1" parent="WIyWlLk6GJQsqaUBKTNV-1">
          <mxGeometry x="685" y="1400" width="130" height="60" as="geometry" />
        </mxCell>
        <mxCell id="tYKw0Z54Xmcige_G44cB-80" value="" style="shape=waypoint;sketch=0;size=6;pointerEvents=1;points=[];fillColor=default;resizable=0;rotatable=0;perimeter=centerPerimeter;snapToPoint=1;rounded=0;" vertex="1" parent="WIyWlLk6GJQsqaUBKTNV-1">
          <mxGeometry x="650" y="1300" width="40" height="40" as="geometry" />
        </mxCell>
        <mxCell id="tYKw0Z54Xmcige_G44cB-81" value="" style="edgeStyle=orthogonalEdgeStyle;rounded=0;orthogonalLoop=1;jettySize=auto;html=1;" edge="1" parent="WIyWlLk6GJQsqaUBKTNV-1" source="tYKw0Z54Xmcige_G44cB-82" target="tYKw0Z54Xmcige_G44cB-85">
          <mxGeometry relative="1" as="geometry" />
        </mxCell>
        <mxCell id="tYKw0Z54Xmcige_G44cB-82" value="DESDE= &quot; B = 0&quot;&lt;br&gt;&amp;nbsp;HASTA = &quot;B&amp;lt;3&quot;&lt;span style=&quot;white-space: pre;&quot;&gt;	&lt;/span&gt;&lt;br&gt;INCREMENTO= 1" style="shape=hexagon;perimeter=hexagonPerimeter2;whiteSpace=wrap;html=1;fixedSize=1;" vertex="1" parent="WIyWlLk6GJQsqaUBKTNV-1">
          <mxGeometry x="675" y="1510" width="150" height="80" as="geometry" />
        </mxCell>
        <mxCell id="tYKw0Z54Xmcige_G44cB-83" value="" style="edgeStyle=orthogonalEdgeStyle;rounded=0;orthogonalLoop=1;jettySize=auto;html=1;" edge="1" parent="WIyWlLk6GJQsqaUBKTNV-1" source="tYKw0Z54Xmcige_G44cB-85" target="tYKw0Z54Xmcige_G44cB-86">
          <mxGeometry relative="1" as="geometry">
            <Array as="points">
              <mxPoint x="610" y="1670" />
              <mxPoint x="610" y="1320" />
            </Array>
          </mxGeometry>
        </mxCell>
        <mxCell id="tYKw0Z54Xmcige_G44cB-84" value="" style="edgeStyle=orthogonalEdgeStyle;rounded=0;orthogonalLoop=1;jettySize=auto;html=1;" edge="1" parent="WIyWlLk6GJQsqaUBKTNV-1" source="tYKw0Z54Xmcige_G44cB-85" target="tYKw0Z54Xmcige_G44cB-95">
          <mxGeometry relative="1" as="geometry" />
        </mxCell>
        <mxCell id="tYKw0Z54Xmcige_G44cB-85" value="DISPLAY-UNIDADES_PUTVAL(0)" style="rounded=0;whiteSpace=wrap;html=1;" vertex="1" parent="WIyWlLk6GJQsqaUBKTNV-1">
          <mxGeometry x="685" y="1650" width="130" height="50" as="geometry" />
        </mxCell>
        <mxCell id="tYKw0Z54Xmcige_G44cB-86" value="" style="shape=waypoint;sketch=0;size=6;pointerEvents=1;points=[];fillColor=default;resizable=0;rotatable=0;perimeter=centerPerimeter;snapToPoint=1;rounded=0;" vertex="1" parent="WIyWlLk6GJQsqaUBKTNV-1">
          <mxGeometry x="650" y="1300" width="40" height="40" as="geometry" />
        </mxCell>
        <mxCell id="tYKw0Z54Xmcige_G44cB-87" value="" style="edgeStyle=orthogonalEdgeStyle;rounded=0;orthogonalLoop=1;jettySize=auto;html=1;" edge="1" parent="WIyWlLk6GJQsqaUBKTNV-1" source="tYKw0Z54Xmcige_G44cB-88" target="tYKw0Z54Xmcige_G44cB-90">
          <mxGeometry relative="1" as="geometry" />
        </mxCell>
        <mxCell id="tYKw0Z54Xmcige_G44cB-88" value="WAIT(500)" style="rounded=1;whiteSpace=wrap;html=1;" vertex="1" parent="WIyWlLk6GJQsqaUBKTNV-1">
          <mxGeometry x="910" y="1370" width="120" height="60" as="geometry" />
        </mxCell>
        <mxCell id="tYKw0Z54Xmcige_G44cB-89" value="" style="shape=waypoint;sketch=0;size=6;pointerEvents=1;points=[];fillColor=default;resizable=0;rotatable=0;perimeter=centerPerimeter;snapToPoint=1;" vertex="1" parent="WIyWlLk6GJQsqaUBKTNV-1">
          <mxGeometry x="130" y="230" width="40" height="40" as="geometry" />
        </mxCell>
        <mxCell id="tYKw0Z54Xmcige_G44cB-90" value="FIN" style="rounded=1;whiteSpace=wrap;html=1;" vertex="1" parent="WIyWlLk6GJQsqaUBKTNV-1">
          <mxGeometry x="1020" y="1600" width="120" height="50" as="geometry" />
        </mxCell>
        <mxCell id="tYKw0Z54Xmcige_G44cB-91" value="" style="shape=waypoint;sketch=0;size=6;pointerEvents=1;points=[];fillColor=default;resizable=0;rotatable=0;perimeter=centerPerimeter;snapToPoint=1;rounded=0;" vertex="1" parent="WIyWlLk6GJQsqaUBKTNV-1">
          <mxGeometry x="890" y="1380" width="40" height="40" as="geometry" />
        </mxCell>
        <mxCell id="tYKw0Z54Xmcige_G44cB-92" value="" style="edgeStyle=orthogonalEdgeStyle;rounded=0;orthogonalLoop=1;jettySize=auto;html=1;entryX=0.604;entryY=0.675;entryDx=0;entryDy=0;entryPerimeter=0;" edge="1" parent="WIyWlLk6GJQsqaUBKTNV-1" source="tYKw0Z54Xmcige_G44cB-93" target="tYKw0Z54Xmcige_G44cB-91">
          <mxGeometry relative="1" as="geometry">
            <Array as="points">
              <mxPoint x="900" y="1533" />
              <mxPoint x="890" y="1533" />
              <mxPoint x="890" y="1400" />
            </Array>
          </mxGeometry>
        </mxCell>
        <mxCell id="tYKw0Z54Xmcige_G44cB-93" value="&amp;nbsp;ROJO_PUTVAL(1)" style="rounded=0;whiteSpace=wrap;html=1;" vertex="1" parent="WIyWlLk6GJQsqaUBKTNV-1">
          <mxGeometry x="860" y="1645" width="120" height="60" as="geometry" />
        </mxCell>
        <mxCell id="tYKw0Z54Xmcige_G44cB-94" value="" style="edgeStyle=orthogonalEdgeStyle;rounded=0;orthogonalLoop=1;jettySize=auto;html=1;" edge="1" parent="WIyWlLk6GJQsqaUBKTNV-1" source="tYKw0Z54Xmcige_G44cB-95" target="tYKw0Z54Xmcige_G44cB-98">
          <mxGeometry relative="1" as="geometry" />
        </mxCell>
        <mxCell id="tYKw0Z54Xmcige_G44cB-95" value="&amp;nbsp;ROJO_PUTVAL(0)" style="rounded=0;whiteSpace=wrap;html=1;" vertex="1" parent="WIyWlLk6GJQsqaUBKTNV-1">
          <mxGeometry x="685" y="1753" width="120" height="60" as="geometry" />
        </mxCell>
        <mxCell id="tYKw0Z54Xmcige_G44cB-96" value="" style="edgeStyle=orthogonalEdgeStyle;rounded=0;orthogonalLoop=1;jettySize=auto;html=1;" edge="1" parent="WIyWlLk6GJQsqaUBKTNV-1" source="tYKw0Z54Xmcige_G44cB-97" target="tYKw0Z54Xmcige_G44cB-93">
          <mxGeometry relative="1" as="geometry" />
        </mxCell>
        <mxCell id="tYKw0Z54Xmcige_G44cB-97" value="WAIT(500)" style="rounded=1;whiteSpace=wrap;html=1;" vertex="1" parent="WIyWlLk6GJQsqaUBKTNV-1">
          <mxGeometry x="944" y="1753" width="120" height="60" as="geometry" />
        </mxCell>
        <mxCell id="tYKw0Z54Xmcige_G44cB-98" value="" style="shape=waypoint;sketch=0;size=6;pointerEvents=1;points=[];fillColor=default;resizable=0;rotatable=0;perimeter=centerPerimeter;snapToPoint=1;rounded=0;" vertex="1" parent="WIyWlLk6GJQsqaUBKTNV-1">
          <mxGeometry x="925" y="1763" width="40" height="40" as="geometry" />
        </mxCell>
        <mxCell id="tYKw0Z54Xmcige_G44cB-101" value="" style="edgeStyle=orthogonalEdgeStyle;rounded=0;orthogonalLoop=1;jettySize=auto;html=1;" edge="1" parent="WIyWlLk6GJQsqaUBKTNV-1" source="tYKw0Z54Xmcige_G44cB-99" target="tYKw0Z54Xmcige_G44cB-100">
          <mxGeometry relative="1" as="geometry" />
        </mxCell>
        <mxCell id="tYKw0Z54Xmcige_G44cB-99" value="&lt;span style=&quot;color: rgb(34, 34, 34); font-family: Arial, Helvetica, sans-serif; font-size: small; text-align: start; background-color: rgb(255, 255, 255);&quot;&gt;motor_izquierda&lt;/span&gt;" style="rounded=0;whiteSpace=wrap;html=1;" vertex="1" parent="WIyWlLk6GJQsqaUBKTNV-1">
          <mxGeometry x="257.5" y="1660" width="120" height="60" as="geometry" />
        </mxCell>
        <mxCell id="tYKw0Z54Xmcige_G44cB-103" value="" style="edgeStyle=orthogonalEdgeStyle;rounded=0;orthogonalLoop=1;jettySize=auto;html=1;" edge="1" parent="WIyWlLk6GJQsqaUBKTNV-1" source="tYKw0Z54Xmcige_G44cB-100" target="tYKw0Z54Xmcige_G44cB-102">
          <mxGeometry relative="1" as="geometry" />
        </mxCell>
        <mxCell id="tYKw0Z54Xmcige_G44cB-100" value="&#xa;&lt;div style=&quot;color: rgb(34, 34, 34); font-family: Arial, Helvetica, sans-serif; font-size: small; font-style: normal; font-variant-ligatures: normal; font-variant-caps: normal; font-weight: 400; letter-spacing: normal; orphans: 2; text-align: start; text-indent: 0px; text-transform: none; widows: 2; word-spacing: 0px; -webkit-text-stroke-width: 0px; background-color: rgb(255, 255, 255); text-decoration-thickness: initial; text-decoration-style: initial; text-decoration-color: initial;&quot; dir=&quot;auto&quot;&gt;Bit1_PutVal(1);&lt;/div&gt;&lt;div style=&quot;color: rgb(34, 34, 34); font-family: Arial, Helvetica, sans-serif; font-size: small; font-style: normal; font-variant-ligatures: normal; font-variant-caps: normal; font-weight: 400; letter-spacing: normal; orphans: 2; text-align: start; text-indent: 0px; text-transform: none; widows: 2; word-spacing: 0px; -webkit-text-stroke-width: 0px; background-color: rgb(255, 255, 255); text-decoration-thickness: initial; text-decoration-style: initial; text-decoration-color: initial;&quot; dir=&quot;auto&quot;&gt;Bit2_PutVal(0);&lt;/div&gt;&lt;div style=&quot;color: rgb(34, 34, 34); font-family: Arial, Helvetica, sans-serif; font-size: small; font-style: normal; font-variant-ligatures: normal; font-variant-caps: normal; font-weight: 400; letter-spacing: normal; orphans: 2; text-align: start; text-indent: 0px; text-transform: none; widows: 2; word-spacing: 0px; -webkit-text-stroke-width: 0px; background-color: rgb(255, 255, 255); text-decoration-thickness: initial; text-decoration-style: initial; text-decoration-color: initial;&quot; dir=&quot;auto&quot;&gt;Bit3_PutVal(0);&lt;/div&gt;&lt;div style=&quot;color: rgb(34, 34, 34); font-family: Arial, Helvetica, sans-serif; font-size: small; font-style: normal; font-variant-ligatures: normal; font-variant-caps: normal; font-weight: 400; letter-spacing: normal; orphans: 2; text-align: start; text-indent: 0px; text-transform: none; widows: 2; word-spacing: 0px; -webkit-text-stroke-width: 0px; background-color: rgb(255, 255, 255); text-decoration-thickness: initial; text-decoration-style: initial; text-decoration-color: initial;&quot; dir=&quot;auto&quot;&gt;Bit4_PutVal(0);&lt;/div&gt;&#xa;&#xa;" style="rounded=0;whiteSpace=wrap;html=1;" vertex="1" parent="WIyWlLk6GJQsqaUBKTNV-1">
          <mxGeometry x="225" y="1800" width="185" height="150" as="geometry" />
        </mxCell>
        <mxCell id="tYKw0Z54Xmcige_G44cB-105" value="" style="edgeStyle=orthogonalEdgeStyle;rounded=0;orthogonalLoop=1;jettySize=auto;html=1;" edge="1" parent="WIyWlLk6GJQsqaUBKTNV-1" source="tYKw0Z54Xmcige_G44cB-102" target="tYKw0Z54Xmcige_G44cB-104">
          <mxGeometry relative="1" as="geometry" />
        </mxCell>
        <mxCell id="tYKw0Z54Xmcige_G44cB-102" value="WAIT(5)" style="rounded=1;whiteSpace=wrap;html=1;" vertex="1" parent="WIyWlLk6GJQsqaUBKTNV-1">
          <mxGeometry x="257.5" y="2010" width="120" height="60" as="geometry" />
        </mxCell>
        <mxCell id="tYKw0Z54Xmcige_G44cB-109" value="" style="edgeStyle=orthogonalEdgeStyle;rounded=0;orthogonalLoop=1;jettySize=auto;html=1;" edge="1" parent="WIyWlLk6GJQsqaUBKTNV-1" source="tYKw0Z54Xmcige_G44cB-104" target="tYKw0Z54Xmcige_G44cB-107">
          <mxGeometry relative="1" as="geometry" />
        </mxCell>
        <mxCell id="tYKw0Z54Xmcige_G44cB-104" value="&lt;br&gt;&lt;div style=&quot;color: rgb(34, 34, 34); font-family: Arial, Helvetica, sans-serif; font-size: small; font-style: normal; font-variant-ligatures: normal; font-variant-caps: normal; font-weight: 400; letter-spacing: normal; orphans: 2; text-align: start; text-indent: 0px; text-transform: none; widows: 2; word-spacing: 0px; -webkit-text-stroke-width: 0px; background-color: rgb(255, 255, 255); text-decoration-thickness: initial; text-decoration-style: initial; text-decoration-color: initial;&quot; dir=&quot;auto&quot;&gt;Bit1_PutVal(0);&lt;/div&gt;&lt;div style=&quot;color: rgb(34, 34, 34); font-family: Arial, Helvetica, sans-serif; font-size: small; font-style: normal; font-variant-ligatures: normal; font-variant-caps: normal; font-weight: 400; letter-spacing: normal; orphans: 2; text-align: start; text-indent: 0px; text-transform: none; widows: 2; word-spacing: 0px; -webkit-text-stroke-width: 0px; background-color: rgb(255, 255, 255); text-decoration-thickness: initial; text-decoration-style: initial; text-decoration-color: initial;&quot; dir=&quot;auto&quot;&gt;Bit2_PutVal(1);&lt;/div&gt;&lt;div style=&quot;color: rgb(34, 34, 34); font-family: Arial, Helvetica, sans-serif; font-size: small; font-style: normal; font-variant-ligatures: normal; font-variant-caps: normal; font-weight: 400; letter-spacing: normal; orphans: 2; text-align: start; text-indent: 0px; text-transform: none; widows: 2; word-spacing: 0px; -webkit-text-stroke-width: 0px; background-color: rgb(255, 255, 255); text-decoration-thickness: initial; text-decoration-style: initial; text-decoration-color: initial;&quot; dir=&quot;auto&quot;&gt;Bit3_PutVal(0);&lt;/div&gt;&lt;div style=&quot;color: rgb(34, 34, 34); font-family: Arial, Helvetica, sans-serif; font-size: small; font-style: normal; font-variant-ligatures: normal; font-variant-caps: normal; font-weight: 400; letter-spacing: normal; orphans: 2; text-align: start; text-indent: 0px; text-transform: none; widows: 2; word-spacing: 0px; -webkit-text-stroke-width: 0px; background-color: rgb(255, 255, 255); text-decoration-thickness: initial; text-decoration-style: initial; text-decoration-color: initial;&quot; dir=&quot;auto&quot;&gt;Bit4_PutVal(0);&lt;/div&gt;&lt;br&gt;" style="rounded=0;whiteSpace=wrap;html=1;" vertex="1" parent="WIyWlLk6GJQsqaUBKTNV-1">
          <mxGeometry x="229" y="2130" width="185" height="150" as="geometry" />
        </mxCell>
        <mxCell id="tYKw0Z54Xmcige_G44cB-106" value="" style="edgeStyle=orthogonalEdgeStyle;rounded=0;orthogonalLoop=1;jettySize=auto;html=1;" edge="1" parent="WIyWlLk6GJQsqaUBKTNV-1" source="tYKw0Z54Xmcige_G44cB-107" target="tYKw0Z54Xmcige_G44cB-108">
          <mxGeometry relative="1" as="geometry" />
        </mxCell>
        <mxCell id="tYKw0Z54Xmcige_G44cB-107" value="WAIT(5)" style="rounded=1;whiteSpace=wrap;html=1;" vertex="1" parent="WIyWlLk6GJQsqaUBKTNV-1">
          <mxGeometry x="261.5" y="2338" width="120" height="60" as="geometry" />
        </mxCell>
        <mxCell id="tYKw0Z54Xmcige_G44cB-113" value="" style="edgeStyle=orthogonalEdgeStyle;rounded=0;orthogonalLoop=1;jettySize=auto;html=1;" edge="1" parent="WIyWlLk6GJQsqaUBKTNV-1" source="tYKw0Z54Xmcige_G44cB-108" target="tYKw0Z54Xmcige_G44cB-111">
          <mxGeometry relative="1" as="geometry" />
        </mxCell>
        <mxCell id="tYKw0Z54Xmcige_G44cB-108" value="&lt;br&gt;&lt;div style=&quot;color: rgb(34, 34, 34); font-family: Arial, Helvetica, sans-serif; font-size: small; font-style: normal; font-variant-ligatures: normal; font-variant-caps: normal; font-weight: 400; letter-spacing: normal; orphans: 2; text-align: start; text-indent: 0px; text-transform: none; widows: 2; word-spacing: 0px; -webkit-text-stroke-width: 0px; background-color: rgb(255, 255, 255); text-decoration-thickness: initial; text-decoration-style: initial; text-decoration-color: initial;&quot; dir=&quot;auto&quot;&gt;Bit1_PutVal(0);&lt;/div&gt;&lt;div style=&quot;color: rgb(34, 34, 34); font-family: Arial, Helvetica, sans-serif; font-size: small; font-style: normal; font-variant-ligatures: normal; font-variant-caps: normal; font-weight: 400; letter-spacing: normal; orphans: 2; text-align: start; text-indent: 0px; text-transform: none; widows: 2; word-spacing: 0px; -webkit-text-stroke-width: 0px; background-color: rgb(255, 255, 255); text-decoration-thickness: initial; text-decoration-style: initial; text-decoration-color: initial;&quot; dir=&quot;auto&quot;&gt;Bit2_PutVal(0);&lt;/div&gt;&lt;div style=&quot;color: rgb(34, 34, 34); font-family: Arial, Helvetica, sans-serif; font-size: small; font-style: normal; font-variant-ligatures: normal; font-variant-caps: normal; font-weight: 400; letter-spacing: normal; orphans: 2; text-align: start; text-indent: 0px; text-transform: none; widows: 2; word-spacing: 0px; -webkit-text-stroke-width: 0px; background-color: rgb(255, 255, 255); text-decoration-thickness: initial; text-decoration-style: initial; text-decoration-color: initial;&quot; dir=&quot;auto&quot;&gt;Bit3_PutVal(1);&lt;/div&gt;&lt;div style=&quot;color: rgb(34, 34, 34); font-family: Arial, Helvetica, sans-serif; font-size: small; font-style: normal; font-variant-ligatures: normal; font-variant-caps: normal; font-weight: 400; letter-spacing: normal; orphans: 2; text-align: start; text-indent: 0px; text-transform: none; widows: 2; word-spacing: 0px; -webkit-text-stroke-width: 0px; background-color: rgb(255, 255, 255); text-decoration-thickness: initial; text-decoration-style: initial; text-decoration-color: initial;&quot; dir=&quot;auto&quot;&gt;Bit4_PutVal(0);&lt;/div&gt;" style="rounded=0;whiteSpace=wrap;html=1;" vertex="1" parent="WIyWlLk6GJQsqaUBKTNV-1">
          <mxGeometry x="230" y="2458" width="185" height="150" as="geometry" />
        </mxCell>
        <mxCell id="tYKw0Z54Xmcige_G44cB-110" value="" style="edgeStyle=orthogonalEdgeStyle;rounded=0;orthogonalLoop=1;jettySize=auto;html=1;" edge="1" parent="WIyWlLk6GJQsqaUBKTNV-1" source="tYKw0Z54Xmcige_G44cB-111" target="tYKw0Z54Xmcige_G44cB-112">
          <mxGeometry relative="1" as="geometry" />
        </mxCell>
        <mxCell id="tYKw0Z54Xmcige_G44cB-111" value="WAIT(5)" style="rounded=1;whiteSpace=wrap;html=1;" vertex="1" parent="WIyWlLk6GJQsqaUBKTNV-1">
          <mxGeometry x="286" y="2640" width="120" height="60" as="geometry" />
        </mxCell>
        <mxCell id="tYKw0Z54Xmcige_G44cB-112" value="&lt;br&gt;&lt;div style=&quot;color: rgb(34, 34, 34); font-family: Arial, Helvetica, sans-serif; font-size: small; font-style: normal; font-variant-ligatures: normal; font-variant-caps: normal; font-weight: 400; letter-spacing: normal; orphans: 2; text-align: start; text-indent: 0px; text-transform: none; widows: 2; word-spacing: 0px; -webkit-text-stroke-width: 0px; background-color: rgb(255, 255, 255); text-decoration-thickness: initial; text-decoration-style: initial; text-decoration-color: initial;&quot; dir=&quot;auto&quot;&gt;Bit1_PutVal(0);&lt;/div&gt;&lt;div style=&quot;color: rgb(34, 34, 34); font-family: Arial, Helvetica, sans-serif; font-size: small; font-style: normal; font-variant-ligatures: normal; font-variant-caps: normal; font-weight: 400; letter-spacing: normal; orphans: 2; text-align: start; text-indent: 0px; text-transform: none; widows: 2; word-spacing: 0px; -webkit-text-stroke-width: 0px; background-color: rgb(255, 255, 255); text-decoration-thickness: initial; text-decoration-style: initial; text-decoration-color: initial;&quot; dir=&quot;auto&quot;&gt;Bit2_PutVal(0);&lt;/div&gt;&lt;div style=&quot;color: rgb(34, 34, 34); font-family: Arial, Helvetica, sans-serif; font-size: small; font-style: normal; font-variant-ligatures: normal; font-variant-caps: normal; font-weight: 400; letter-spacing: normal; orphans: 2; text-align: start; text-indent: 0px; text-transform: none; widows: 2; word-spacing: 0px; -webkit-text-stroke-width: 0px; background-color: rgb(255, 255, 255); text-decoration-thickness: initial; text-decoration-style: initial; text-decoration-color: initial;&quot; dir=&quot;auto&quot;&gt;Bit3_PutVal(0);&lt;/div&gt;&lt;div style=&quot;color: rgb(34, 34, 34); font-family: Arial, Helvetica, sans-serif; font-size: small; font-style: normal; font-variant-ligatures: normal; font-variant-caps: normal; font-weight: 400; letter-spacing: normal; orphans: 2; text-align: start; text-indent: 0px; text-transform: none; widows: 2; word-spacing: 0px; -webkit-text-stroke-width: 0px; background-color: rgb(255, 255, 255); text-decoration-thickness: initial; text-decoration-style: initial; text-decoration-color: initial;&quot; dir=&quot;auto&quot;&gt;Bit4_PutVal(1);&lt;/div&gt;" style="rounded=0;whiteSpace=wrap;html=1;" vertex="1" parent="WIyWlLk6GJQsqaUBKTNV-1">
          <mxGeometry x="257.5" y="2760" width="185" height="150" as="geometry" />
        </mxCell>
        <mxCell id="tYKw0Z54Xmcige_G44cB-128" value="" style="edgeStyle=orthogonalEdgeStyle;rounded=0;orthogonalLoop=1;jettySize=auto;html=1;" edge="1" parent="WIyWlLk6GJQsqaUBKTNV-1" source="tYKw0Z54Xmcige_G44cB-114" target="tYKw0Z54Xmcige_G44cB-116">
          <mxGeometry relative="1" as="geometry" />
        </mxCell>
        <mxCell id="tYKw0Z54Xmcige_G44cB-114" value="&lt;span style=&quot;color: rgb(34, 34, 34); font-family: Arial, Helvetica, sans-serif; font-size: small; text-align: start; background-color: rgb(255, 255, 255);&quot;&gt;motor_lento&lt;br&gt;&lt;/span&gt;" style="rounded=0;whiteSpace=wrap;html=1;" vertex="1" parent="WIyWlLk6GJQsqaUBKTNV-1">
          <mxGeometry x="685" y="1900" width="120" height="60" as="geometry" />
        </mxCell>
        <mxCell id="tYKw0Z54Xmcige_G44cB-115" value="" style="edgeStyle=orthogonalEdgeStyle;rounded=0;orthogonalLoop=1;jettySize=auto;html=1;" edge="1" parent="WIyWlLk6GJQsqaUBKTNV-1" source="tYKw0Z54Xmcige_G44cB-116" target="tYKw0Z54Xmcige_G44cB-118">
          <mxGeometry relative="1" as="geometry" />
        </mxCell>
        <mxCell id="tYKw0Z54Xmcige_G44cB-116" value="&#xa;&lt;div style=&quot;color: rgb(34, 34, 34); font-family: Arial, Helvetica, sans-serif; font-size: small; font-style: normal; font-variant-ligatures: normal; font-variant-caps: normal; font-weight: 400; letter-spacing: normal; orphans: 2; text-align: start; text-indent: 0px; text-transform: none; widows: 2; word-spacing: 0px; -webkit-text-stroke-width: 0px; background-color: rgb(255, 255, 255); text-decoration-thickness: initial; text-decoration-style: initial; text-decoration-color: initial;&quot; dir=&quot;auto&quot;&gt;Bit1_PutVal(1);&lt;/div&gt;&lt;div style=&quot;color: rgb(34, 34, 34); font-family: Arial, Helvetica, sans-serif; font-size: small; font-style: normal; font-variant-ligatures: normal; font-variant-caps: normal; font-weight: 400; letter-spacing: normal; orphans: 2; text-align: start; text-indent: 0px; text-transform: none; widows: 2; word-spacing: 0px; -webkit-text-stroke-width: 0px; background-color: rgb(255, 255, 255); text-decoration-thickness: initial; text-decoration-style: initial; text-decoration-color: initial;&quot; dir=&quot;auto&quot;&gt;Bit2_PutVal(0);&lt;/div&gt;&lt;div style=&quot;color: rgb(34, 34, 34); font-family: Arial, Helvetica, sans-serif; font-size: small; font-style: normal; font-variant-ligatures: normal; font-variant-caps: normal; font-weight: 400; letter-spacing: normal; orphans: 2; text-align: start; text-indent: 0px; text-transform: none; widows: 2; word-spacing: 0px; -webkit-text-stroke-width: 0px; background-color: rgb(255, 255, 255); text-decoration-thickness: initial; text-decoration-style: initial; text-decoration-color: initial;&quot; dir=&quot;auto&quot;&gt;Bit3_PutVal(0);&lt;/div&gt;&lt;div style=&quot;color: rgb(34, 34, 34); font-family: Arial, Helvetica, sans-serif; font-size: small; font-style: normal; font-variant-ligatures: normal; font-variant-caps: normal; font-weight: 400; letter-spacing: normal; orphans: 2; text-align: start; text-indent: 0px; text-transform: none; widows: 2; word-spacing: 0px; -webkit-text-stroke-width: 0px; background-color: rgb(255, 255, 255); text-decoration-thickness: initial; text-decoration-style: initial; text-decoration-color: initial;&quot; dir=&quot;auto&quot;&gt;Bit4_PutVal(0);&lt;/div&gt;&#xa;&#xa;" style="rounded=0;whiteSpace=wrap;html=1;" vertex="1" parent="WIyWlLk6GJQsqaUBKTNV-1">
          <mxGeometry x="644.9200000000001" y="2000" width="185" height="150" as="geometry" />
        </mxCell>
        <mxCell id="tYKw0Z54Xmcige_G44cB-117" value="" style="edgeStyle=orthogonalEdgeStyle;rounded=0;orthogonalLoop=1;jettySize=auto;html=1;" edge="1" parent="WIyWlLk6GJQsqaUBKTNV-1" source="tYKw0Z54Xmcige_G44cB-118" target="tYKw0Z54Xmcige_G44cB-120">
          <mxGeometry relative="1" as="geometry" />
        </mxCell>
        <mxCell id="tYKw0Z54Xmcige_G44cB-118" value="WAIT(10)" style="rounded=1;whiteSpace=wrap;html=1;" vertex="1" parent="WIyWlLk6GJQsqaUBKTNV-1">
          <mxGeometry x="677.4200000000001" y="2210" width="120" height="60" as="geometry" />
        </mxCell>
        <mxCell id="tYKw0Z54Xmcige_G44cB-119" value="" style="edgeStyle=orthogonalEdgeStyle;rounded=0;orthogonalLoop=1;jettySize=auto;html=1;" edge="1" parent="WIyWlLk6GJQsqaUBKTNV-1" source="tYKw0Z54Xmcige_G44cB-120" target="tYKw0Z54Xmcige_G44cB-122">
          <mxGeometry relative="1" as="geometry" />
        </mxCell>
        <mxCell id="tYKw0Z54Xmcige_G44cB-120" value="&lt;br&gt;&lt;div style=&quot;color: rgb(34, 34, 34); font-family: Arial, Helvetica, sans-serif; font-size: small; font-style: normal; font-variant-ligatures: normal; font-variant-caps: normal; font-weight: 400; letter-spacing: normal; orphans: 2; text-align: start; text-indent: 0px; text-transform: none; widows: 2; word-spacing: 0px; -webkit-text-stroke-width: 0px; background-color: rgb(255, 255, 255); text-decoration-thickness: initial; text-decoration-style: initial; text-decoration-color: initial;&quot; dir=&quot;auto&quot;&gt;Bit1_PutVal(0);&lt;/div&gt;&lt;div style=&quot;color: rgb(34, 34, 34); font-family: Arial, Helvetica, sans-serif; font-size: small; font-style: normal; font-variant-ligatures: normal; font-variant-caps: normal; font-weight: 400; letter-spacing: normal; orphans: 2; text-align: start; text-indent: 0px; text-transform: none; widows: 2; word-spacing: 0px; -webkit-text-stroke-width: 0px; background-color: rgb(255, 255, 255); text-decoration-thickness: initial; text-decoration-style: initial; text-decoration-color: initial;&quot; dir=&quot;auto&quot;&gt;Bit2_PutVal(1);&lt;/div&gt;&lt;div style=&quot;color: rgb(34, 34, 34); font-family: Arial, Helvetica, sans-serif; font-size: small; font-style: normal; font-variant-ligatures: normal; font-variant-caps: normal; font-weight: 400; letter-spacing: normal; orphans: 2; text-align: start; text-indent: 0px; text-transform: none; widows: 2; word-spacing: 0px; -webkit-text-stroke-width: 0px; background-color: rgb(255, 255, 255); text-decoration-thickness: initial; text-decoration-style: initial; text-decoration-color: initial;&quot; dir=&quot;auto&quot;&gt;Bit3_PutVal(0);&lt;/div&gt;&lt;div style=&quot;color: rgb(34, 34, 34); font-family: Arial, Helvetica, sans-serif; font-size: small; font-style: normal; font-variant-ligatures: normal; font-variant-caps: normal; font-weight: 400; letter-spacing: normal; orphans: 2; text-align: start; text-indent: 0px; text-transform: none; widows: 2; word-spacing: 0px; -webkit-text-stroke-width: 0px; background-color: rgb(255, 255, 255); text-decoration-thickness: initial; text-decoration-style: initial; text-decoration-color: initial;&quot; dir=&quot;auto&quot;&gt;Bit4_PutVal(0);&lt;/div&gt;&lt;br&gt;" style="rounded=0;whiteSpace=wrap;html=1;" vertex="1" parent="WIyWlLk6GJQsqaUBKTNV-1">
          <mxGeometry x="648.9200000000001" y="2330" width="185" height="150" as="geometry" />
        </mxCell>
        <mxCell id="tYKw0Z54Xmcige_G44cB-121" value="" style="edgeStyle=orthogonalEdgeStyle;rounded=0;orthogonalLoop=1;jettySize=auto;html=1;" edge="1" parent="WIyWlLk6GJQsqaUBKTNV-1" source="tYKw0Z54Xmcige_G44cB-122" target="tYKw0Z54Xmcige_G44cB-124">
          <mxGeometry relative="1" as="geometry" />
        </mxCell>
        <mxCell id="tYKw0Z54Xmcige_G44cB-122" value="WAIT(10)" style="rounded=1;whiteSpace=wrap;html=1;" vertex="1" parent="WIyWlLk6GJQsqaUBKTNV-1">
          <mxGeometry x="683.4200000000001" y="2538" width="120" height="60" as="geometry" />
        </mxCell>
        <mxCell id="tYKw0Z54Xmcige_G44cB-123" value="" style="edgeStyle=orthogonalEdgeStyle;rounded=0;orthogonalLoop=1;jettySize=auto;html=1;" edge="1" parent="WIyWlLk6GJQsqaUBKTNV-1" source="tYKw0Z54Xmcige_G44cB-124" target="tYKw0Z54Xmcige_G44cB-126">
          <mxGeometry relative="1" as="geometry" />
        </mxCell>
        <mxCell id="tYKw0Z54Xmcige_G44cB-124" value="&lt;br&gt;&lt;div style=&quot;color: rgb(34, 34, 34); font-family: Arial, Helvetica, sans-serif; font-size: small; font-style: normal; font-variant-ligatures: normal; font-variant-caps: normal; font-weight: 400; letter-spacing: normal; orphans: 2; text-align: start; text-indent: 0px; text-transform: none; widows: 2; word-spacing: 0px; -webkit-text-stroke-width: 0px; background-color: rgb(255, 255, 255); text-decoration-thickness: initial; text-decoration-style: initial; text-decoration-color: initial;&quot; dir=&quot;auto&quot;&gt;Bit1_PutVal(0);&lt;/div&gt;&lt;div style=&quot;color: rgb(34, 34, 34); font-family: Arial, Helvetica, sans-serif; font-size: small; font-style: normal; font-variant-ligatures: normal; font-variant-caps: normal; font-weight: 400; letter-spacing: normal; orphans: 2; text-align: start; text-indent: 0px; text-transform: none; widows: 2; word-spacing: 0px; -webkit-text-stroke-width: 0px; background-color: rgb(255, 255, 255); text-decoration-thickness: initial; text-decoration-style: initial; text-decoration-color: initial;&quot; dir=&quot;auto&quot;&gt;Bit2_PutVal(0);&lt;/div&gt;&lt;div style=&quot;color: rgb(34, 34, 34); font-family: Arial, Helvetica, sans-serif; font-size: small; font-style: normal; font-variant-ligatures: normal; font-variant-caps: normal; font-weight: 400; letter-spacing: normal; orphans: 2; text-align: start; text-indent: 0px; text-transform: none; widows: 2; word-spacing: 0px; -webkit-text-stroke-width: 0px; background-color: rgb(255, 255, 255); text-decoration-thickness: initial; text-decoration-style: initial; text-decoration-color: initial;&quot; dir=&quot;auto&quot;&gt;Bit3_PutVal(1);&lt;/div&gt;&lt;div style=&quot;color: rgb(34, 34, 34); font-family: Arial, Helvetica, sans-serif; font-size: small; font-style: normal; font-variant-ligatures: normal; font-variant-caps: normal; font-weight: 400; letter-spacing: normal; orphans: 2; text-align: start; text-indent: 0px; text-transform: none; widows: 2; word-spacing: 0px; -webkit-text-stroke-width: 0px; background-color: rgb(255, 255, 255); text-decoration-thickness: initial; text-decoration-style: initial; text-decoration-color: initial;&quot; dir=&quot;auto&quot;&gt;Bit4_PutVal(0);&lt;/div&gt;" style="rounded=0;whiteSpace=wrap;html=1;" vertex="1" parent="WIyWlLk6GJQsqaUBKTNV-1">
          <mxGeometry x="649.9200000000001" y="2658" width="185" height="150" as="geometry" />
        </mxCell>
        <mxCell id="tYKw0Z54Xmcige_G44cB-125" value="" style="edgeStyle=orthogonalEdgeStyle;rounded=0;orthogonalLoop=1;jettySize=auto;html=1;entryX=0;entryY=0.5;entryDx=0;entryDy=0;" edge="1" parent="WIyWlLk6GJQsqaUBKTNV-1" source="tYKw0Z54Xmcige_G44cB-126" target="tYKw0Z54Xmcige_G44cB-129">
          <mxGeometry relative="1" as="geometry">
            <mxPoint x="769.9200000000001" y="2960" as="targetPoint" />
            <Array as="points">
              <mxPoint x="766" y="2930" />
              <mxPoint x="870" y="2930" />
              <mxPoint x="870" y="2960" />
              <mxPoint x="892" y="2960" />
            </Array>
          </mxGeometry>
        </mxCell>
        <mxCell id="tYKw0Z54Xmcige_G44cB-126" value="WAIT(10)" style="rounded=1;whiteSpace=wrap;html=1;" vertex="1" parent="WIyWlLk6GJQsqaUBKTNV-1">
          <mxGeometry x="705.9200000000001" y="2840" width="120" height="60" as="geometry" />
        </mxCell>
        <mxCell id="tYKw0Z54Xmcige_G44cB-129" value="&lt;br&gt;&lt;div style=&quot;color: rgb(34, 34, 34); font-family: Arial, Helvetica, sans-serif; font-size: small; font-style: normal; font-variant-ligatures: normal; font-variant-caps: normal; font-weight: 400; letter-spacing: normal; orphans: 2; text-align: start; text-indent: 0px; text-transform: none; widows: 2; word-spacing: 0px; -webkit-text-stroke-width: 0px; background-color: rgb(255, 255, 255); text-decoration-thickness: initial; text-decoration-style: initial; text-decoration-color: initial;&quot; dir=&quot;auto&quot;&gt;Bit1_PutVal(0);&lt;/div&gt;&lt;div style=&quot;color: rgb(34, 34, 34); font-family: Arial, Helvetica, sans-serif; font-size: small; font-style: normal; font-variant-ligatures: normal; font-variant-caps: normal; font-weight: 400; letter-spacing: normal; orphans: 2; text-align: start; text-indent: 0px; text-transform: none; widows: 2; word-spacing: 0px; -webkit-text-stroke-width: 0px; background-color: rgb(255, 255, 255); text-decoration-thickness: initial; text-decoration-style: initial; text-decoration-color: initial;&quot; dir=&quot;auto&quot;&gt;Bit2_PutVal(0);&lt;/div&gt;&lt;div style=&quot;color: rgb(34, 34, 34); font-family: Arial, Helvetica, sans-serif; font-size: small; font-style: normal; font-variant-ligatures: normal; font-variant-caps: normal; font-weight: 400; letter-spacing: normal; orphans: 2; text-align: start; text-indent: 0px; text-transform: none; widows: 2; word-spacing: 0px; -webkit-text-stroke-width: 0px; background-color: rgb(255, 255, 255); text-decoration-thickness: initial; text-decoration-style: initial; text-decoration-color: initial;&quot; dir=&quot;auto&quot;&gt;Bit3_PutVal(0);&lt;/div&gt;&lt;div style=&quot;color: rgb(34, 34, 34); font-family: Arial, Helvetica, sans-serif; font-size: small; font-style: normal; font-variant-ligatures: normal; font-variant-caps: normal; font-weight: 400; letter-spacing: normal; orphans: 2; text-align: start; text-indent: 0px; text-transform: none; widows: 2; word-spacing: 0px; -webkit-text-stroke-width: 0px; background-color: rgb(255, 255, 255); text-decoration-thickness: initial; text-decoration-style: initial; text-decoration-color: initial;&quot; dir=&quot;auto&quot;&gt;Bit4_PutVal(1);&lt;/div&gt;" style="rounded=0;whiteSpace=wrap;html=1;" vertex="1" parent="WIyWlLk6GJQsqaUBKTNV-1">
          <mxGeometry x="940" y="2880" width="185" height="150" as="geometry" />
        </mxCell>
        <mxCell id="tYKw0Z54Xmcige_G44cB-130" value="" style="edgeStyle=orthogonalEdgeStyle;rounded=0;orthogonalLoop=1;jettySize=auto;html=1;" edge="1" parent="WIyWlLk6GJQsqaUBKTNV-1" source="tYKw0Z54Xmcige_G44cB-131" target="tYKw0Z54Xmcige_G44cB-133">
          <mxGeometry relative="1" as="geometry" />
        </mxCell>
        <mxCell id="tYKw0Z54Xmcige_G44cB-131" value="&lt;span style=&quot;color: rgb(34, 34, 34); font-family: Arial, Helvetica, sans-serif; font-size: small; text-align: start; background-color: rgb(255, 255, 255);&quot;&gt;motor&lt;br&gt;&lt;br&gt;&lt;/span&gt;" style="rounded=0;whiteSpace=wrap;html=1;" vertex="1" parent="WIyWlLk6GJQsqaUBKTNV-1">
          <mxGeometry x="1072.5" y="1908" width="120" height="60" as="geometry" />
        </mxCell>
        <mxCell id="tYKw0Z54Xmcige_G44cB-132" value="" style="edgeStyle=orthogonalEdgeStyle;rounded=0;orthogonalLoop=1;jettySize=auto;html=1;" edge="1" parent="WIyWlLk6GJQsqaUBKTNV-1" source="tYKw0Z54Xmcige_G44cB-133" target="tYKw0Z54Xmcige_G44cB-135">
          <mxGeometry relative="1" as="geometry" />
        </mxCell>
        <mxCell id="tYKw0Z54Xmcige_G44cB-133" value="&#xa;&lt;div style=&quot;color: rgb(34, 34, 34); font-family: Arial, Helvetica, sans-serif; font-size: small; font-style: normal; font-variant-ligatures: normal; font-variant-caps: normal; font-weight: 400; letter-spacing: normal; orphans: 2; text-align: start; text-indent: 0px; text-transform: none; widows: 2; word-spacing: 0px; -webkit-text-stroke-width: 0px; background-color: rgb(255, 255, 255); text-decoration-thickness: initial; text-decoration-style: initial; text-decoration-color: initial;&quot; dir=&quot;auto&quot;&gt;Bit1_PutVal(1);&lt;/div&gt;&lt;div style=&quot;color: rgb(34, 34, 34); font-family: Arial, Helvetica, sans-serif; font-size: small; font-style: normal; font-variant-ligatures: normal; font-variant-caps: normal; font-weight: 400; letter-spacing: normal; orphans: 2; text-align: start; text-indent: 0px; text-transform: none; widows: 2; word-spacing: 0px; -webkit-text-stroke-width: 0px; background-color: rgb(255, 255, 255); text-decoration-thickness: initial; text-decoration-style: initial; text-decoration-color: initial;&quot; dir=&quot;auto&quot;&gt;Bit2_PutVal(0);&lt;/div&gt;&lt;div style=&quot;color: rgb(34, 34, 34); font-family: Arial, Helvetica, sans-serif; font-size: small; font-style: normal; font-variant-ligatures: normal; font-variant-caps: normal; font-weight: 400; letter-spacing: normal; orphans: 2; text-align: start; text-indent: 0px; text-transform: none; widows: 2; word-spacing: 0px; -webkit-text-stroke-width: 0px; background-color: rgb(255, 255, 255); text-decoration-thickness: initial; text-decoration-style: initial; text-decoration-color: initial;&quot; dir=&quot;auto&quot;&gt;Bit3_PutVal(0);&lt;/div&gt;&lt;div style=&quot;color: rgb(34, 34, 34); font-family: Arial, Helvetica, sans-serif; font-size: small; font-style: normal; font-variant-ligatures: normal; font-variant-caps: normal; font-weight: 400; letter-spacing: normal; orphans: 2; text-align: start; text-indent: 0px; text-transform: none; widows: 2; word-spacing: 0px; -webkit-text-stroke-width: 0px; background-color: rgb(255, 255, 255); text-decoration-thickness: initial; text-decoration-style: initial; text-decoration-color: initial;&quot; dir=&quot;auto&quot;&gt;Bit4_PutVal(0);&lt;/div&gt;&#xa;&#xa;" style="rounded=0;whiteSpace=wrap;html=1;" vertex="1" parent="WIyWlLk6GJQsqaUBKTNV-1">
          <mxGeometry x="1040" y="2048" width="185" height="150" as="geometry" />
        </mxCell>
        <mxCell id="tYKw0Z54Xmcige_G44cB-134" value="" style="edgeStyle=orthogonalEdgeStyle;rounded=0;orthogonalLoop=1;jettySize=auto;html=1;" edge="1" parent="WIyWlLk6GJQsqaUBKTNV-1" source="tYKw0Z54Xmcige_G44cB-135" target="tYKw0Z54Xmcige_G44cB-137">
          <mxGeometry relative="1" as="geometry" />
        </mxCell>
        <mxCell id="tYKw0Z54Xmcige_G44cB-135" value="WAIT(5)" style="rounded=1;whiteSpace=wrap;html=1;" vertex="1" parent="WIyWlLk6GJQsqaUBKTNV-1">
          <mxGeometry x="1072.5" y="2258" width="120" height="60" as="geometry" />
        </mxCell>
        <mxCell id="tYKw0Z54Xmcige_G44cB-136" value="" style="edgeStyle=orthogonalEdgeStyle;rounded=0;orthogonalLoop=1;jettySize=auto;html=1;" edge="1" parent="WIyWlLk6GJQsqaUBKTNV-1" source="tYKw0Z54Xmcige_G44cB-137" target="tYKw0Z54Xmcige_G44cB-139">
          <mxGeometry relative="1" as="geometry" />
        </mxCell>
        <mxCell id="tYKw0Z54Xmcige_G44cB-137" value="&lt;br&gt;&lt;div style=&quot;color: rgb(34, 34, 34); font-family: Arial, Helvetica, sans-serif; font-size: small; font-style: normal; font-variant-ligatures: normal; font-variant-caps: normal; font-weight: 400; letter-spacing: normal; orphans: 2; text-align: start; text-indent: 0px; text-transform: none; widows: 2; word-spacing: 0px; -webkit-text-stroke-width: 0px; background-color: rgb(255, 255, 255); text-decoration-thickness: initial; text-decoration-style: initial; text-decoration-color: initial;&quot; dir=&quot;auto&quot;&gt;Bit1_PutVal(0);&lt;/div&gt;&lt;div style=&quot;color: rgb(34, 34, 34); font-family: Arial, Helvetica, sans-serif; font-size: small; font-style: normal; font-variant-ligatures: normal; font-variant-caps: normal; font-weight: 400; letter-spacing: normal; orphans: 2; text-align: start; text-indent: 0px; text-transform: none; widows: 2; word-spacing: 0px; -webkit-text-stroke-width: 0px; background-color: rgb(255, 255, 255); text-decoration-thickness: initial; text-decoration-style: initial; text-decoration-color: initial;&quot; dir=&quot;auto&quot;&gt;Bit2_PutVal(1);&lt;/div&gt;&lt;div style=&quot;color: rgb(34, 34, 34); font-family: Arial, Helvetica, sans-serif; font-size: small; font-style: normal; font-variant-ligatures: normal; font-variant-caps: normal; font-weight: 400; letter-spacing: normal; orphans: 2; text-align: start; text-indent: 0px; text-transform: none; widows: 2; word-spacing: 0px; -webkit-text-stroke-width: 0px; background-color: rgb(255, 255, 255); text-decoration-thickness: initial; text-decoration-style: initial; text-decoration-color: initial;&quot; dir=&quot;auto&quot;&gt;Bit3_PutVal(0);&lt;/div&gt;&lt;div style=&quot;color: rgb(34, 34, 34); font-family: Arial, Helvetica, sans-serif; font-size: small; font-style: normal; font-variant-ligatures: normal; font-variant-caps: normal; font-weight: 400; letter-spacing: normal; orphans: 2; text-align: start; text-indent: 0px; text-transform: none; widows: 2; word-spacing: 0px; -webkit-text-stroke-width: 0px; background-color: rgb(255, 255, 255); text-decoration-thickness: initial; text-decoration-style: initial; text-decoration-color: initial;&quot; dir=&quot;auto&quot;&gt;Bit4_PutVal(0);&lt;/div&gt;&lt;br&gt;" style="rounded=0;whiteSpace=wrap;html=1;" vertex="1" parent="WIyWlLk6GJQsqaUBKTNV-1">
          <mxGeometry x="1044" y="2378" width="185" height="150" as="geometry" />
        </mxCell>
        <mxCell id="tYKw0Z54Xmcige_G44cB-138" value="" style="edgeStyle=orthogonalEdgeStyle;rounded=0;orthogonalLoop=1;jettySize=auto;html=1;" edge="1" parent="WIyWlLk6GJQsqaUBKTNV-1" source="tYKw0Z54Xmcige_G44cB-139" target="tYKw0Z54Xmcige_G44cB-141">
          <mxGeometry relative="1" as="geometry" />
        </mxCell>
        <mxCell id="tYKw0Z54Xmcige_G44cB-139" value="WAIT(5)" style="rounded=1;whiteSpace=wrap;html=1;" vertex="1" parent="WIyWlLk6GJQsqaUBKTNV-1">
          <mxGeometry x="1076.5" y="2586" width="120" height="60" as="geometry" />
        </mxCell>
        <mxCell id="tYKw0Z54Xmcige_G44cB-140" value="" style="edgeStyle=orthogonalEdgeStyle;rounded=0;orthogonalLoop=1;jettySize=auto;html=1;" edge="1" parent="WIyWlLk6GJQsqaUBKTNV-1" source="tYKw0Z54Xmcige_G44cB-141" target="tYKw0Z54Xmcige_G44cB-143">
          <mxGeometry relative="1" as="geometry" />
        </mxCell>
        <mxCell id="tYKw0Z54Xmcige_G44cB-141" value="&lt;br&gt;&lt;div style=&quot;color: rgb(34, 34, 34); font-family: Arial, Helvetica, sans-serif; font-size: small; font-style: normal; font-variant-ligatures: normal; font-variant-caps: normal; font-weight: 400; letter-spacing: normal; orphans: 2; text-align: start; text-indent: 0px; text-transform: none; widows: 2; word-spacing: 0px; -webkit-text-stroke-width: 0px; background-color: rgb(255, 255, 255); text-decoration-thickness: initial; text-decoration-style: initial; text-decoration-color: initial;&quot; dir=&quot;auto&quot;&gt;Bit1_PutVal(0);&lt;/div&gt;&lt;div style=&quot;color: rgb(34, 34, 34); font-family: Arial, Helvetica, sans-serif; font-size: small; font-style: normal; font-variant-ligatures: normal; font-variant-caps: normal; font-weight: 400; letter-spacing: normal; orphans: 2; text-align: start; text-indent: 0px; text-transform: none; widows: 2; word-spacing: 0px; -webkit-text-stroke-width: 0px; background-color: rgb(255, 255, 255); text-decoration-thickness: initial; text-decoration-style: initial; text-decoration-color: initial;&quot; dir=&quot;auto&quot;&gt;Bit2_PutVal(0);&lt;/div&gt;&lt;div style=&quot;color: rgb(34, 34, 34); font-family: Arial, Helvetica, sans-serif; font-size: small; font-style: normal; font-variant-ligatures: normal; font-variant-caps: normal; font-weight: 400; letter-spacing: normal; orphans: 2; text-align: start; text-indent: 0px; text-transform: none; widows: 2; word-spacing: 0px; -webkit-text-stroke-width: 0px; background-color: rgb(255, 255, 255); text-decoration-thickness: initial; text-decoration-style: initial; text-decoration-color: initial;&quot; dir=&quot;auto&quot;&gt;Bit3_PutVal(1);&lt;/div&gt;&lt;div style=&quot;color: rgb(34, 34, 34); font-family: Arial, Helvetica, sans-serif; font-size: small; font-style: normal; font-variant-ligatures: normal; font-variant-caps: normal; font-weight: 400; letter-spacing: normal; orphans: 2; text-align: start; text-indent: 0px; text-transform: none; widows: 2; word-spacing: 0px; -webkit-text-stroke-width: 0px; background-color: rgb(255, 255, 255); text-decoration-thickness: initial; text-decoration-style: initial; text-decoration-color: initial;&quot; dir=&quot;auto&quot;&gt;Bit4_PutVal(0);&lt;/div&gt;" style="rounded=0;whiteSpace=wrap;html=1;" vertex="1" parent="WIyWlLk6GJQsqaUBKTNV-1">
          <mxGeometry x="1045" y="2706" width="185" height="150" as="geometry" />
        </mxCell>
        <mxCell id="tYKw0Z54Xmcige_G44cB-142" value="" style="edgeStyle=orthogonalEdgeStyle;rounded=0;orthogonalLoop=1;jettySize=auto;html=1;" edge="1" parent="WIyWlLk6GJQsqaUBKTNV-1" source="tYKw0Z54Xmcige_G44cB-143" target="tYKw0Z54Xmcige_G44cB-144">
          <mxGeometry relative="1" as="geometry" />
        </mxCell>
        <mxCell id="tYKw0Z54Xmcige_G44cB-143" value="WAIT(5)" style="rounded=1;whiteSpace=wrap;html=1;" vertex="1" parent="WIyWlLk6GJQsqaUBKTNV-1">
          <mxGeometry x="1101" y="2888" width="120" height="60" as="geometry" />
        </mxCell>
        <mxCell id="tYKw0Z54Xmcige_G44cB-144" value="&lt;br&gt;&lt;div style=&quot;color: rgb(34, 34, 34); font-family: Arial, Helvetica, sans-serif; font-size: small; font-style: normal; font-variant-ligatures: normal; font-variant-caps: normal; font-weight: 400; letter-spacing: normal; orphans: 2; text-align: start; text-indent: 0px; text-transform: none; widows: 2; word-spacing: 0px; -webkit-text-stroke-width: 0px; background-color: rgb(255, 255, 255); text-decoration-thickness: initial; text-decoration-style: initial; text-decoration-color: initial;&quot; dir=&quot;auto&quot;&gt;Bit1_PutVal(0);&lt;/div&gt;&lt;div style=&quot;color: rgb(34, 34, 34); font-family: Arial, Helvetica, sans-serif; font-size: small; font-style: normal; font-variant-ligatures: normal; font-variant-caps: normal; font-weight: 400; letter-spacing: normal; orphans: 2; text-align: start; text-indent: 0px; text-transform: none; widows: 2; word-spacing: 0px; -webkit-text-stroke-width: 0px; background-color: rgb(255, 255, 255); text-decoration-thickness: initial; text-decoration-style: initial; text-decoration-color: initial;&quot; dir=&quot;auto&quot;&gt;Bit2_PutVal(0);&lt;/div&gt;&lt;div style=&quot;color: rgb(34, 34, 34); font-family: Arial, Helvetica, sans-serif; font-size: small; font-style: normal; font-variant-ligatures: normal; font-variant-caps: normal; font-weight: 400; letter-spacing: normal; orphans: 2; text-align: start; text-indent: 0px; text-transform: none; widows: 2; word-spacing: 0px; -webkit-text-stroke-width: 0px; background-color: rgb(255, 255, 255); text-decoration-thickness: initial; text-decoration-style: initial; text-decoration-color: initial;&quot; dir=&quot;auto&quot;&gt;Bit3_PutVal(0);&lt;/div&gt;&lt;div style=&quot;color: rgb(34, 34, 34); font-family: Arial, Helvetica, sans-serif; font-size: small; font-style: normal; font-variant-ligatures: normal; font-variant-caps: normal; font-weight: 400; letter-spacing: normal; orphans: 2; text-align: start; text-indent: 0px; text-transform: none; widows: 2; word-spacing: 0px; -webkit-text-stroke-width: 0px; background-color: rgb(255, 255, 255); text-decoration-thickness: initial; text-decoration-style: initial; text-decoration-color: initial;&quot; dir=&quot;auto&quot;&gt;Bit4_PutVal(1);&lt;/div&gt;" style="rounded=0;whiteSpace=wrap;html=1;" vertex="1" parent="WIyWlLk6GJQsqaUBKTNV-1">
          <mxGeometry x="1072.5" y="3008" width="185" height="150" as="geometry" />
        </mxCell>
        <mxCell id="tYKw0Z54Xmcige_G44cB-145" value="DESDE= &quot; A = 0&quot;&lt;br&gt;&amp;nbsp;HASTA = &quot;A&amp;lt;=9&quot;&lt;span style=&quot;white-space: pre;&quot;&gt;	&lt;/span&gt;&lt;br&gt;INCREMENTO= 1" style="shape=hexagon;perimeter=hexagonPerimeter2;whiteSpace=wrap;html=1;fixedSize=1;" vertex="1" parent="WIyWlLk6GJQsqaUBKTNV-1">
          <mxGeometry x="115" y="480" width="150" height="80" as="geometry" />
        </mxCell>
        <mxCell id="tYKw0Z54Xmcige_G44cB-147" value="" style="shape=waypoint;sketch=0;size=6;pointerEvents=1;points=[];fillColor=default;resizable=0;rotatable=0;perimeter=centerPerimeter;snapToPoint=1;rounded=1;" vertex="1" parent="WIyWlLk6GJQsqaUBKTNV-1">
          <mxGeometry x="230" y="470" width="40" height="40" as="geometry" />
        </mxCell>
        <mxCell id="tYKw0Z54Xmcige_G44cB-148" value="" style="edgeStyle=orthogonalEdgeStyle;rounded=0;orthogonalLoop=1;jettySize=auto;html=1;" edge="1" parent="WIyWlLk6GJQsqaUBKTNV-1" target="tYKw0Z54Xmcige_G44cB-150">
          <mxGeometry relative="1" as="geometry">
            <mxPoint x="189.99999999999977" y="559.9999999999999" as="sourcePoint" />
          </mxGeometry>
        </mxCell>
        <mxCell id="tYKw0Z54Xmcige_G44cB-149" value="" style="edgeStyle=orthogonalEdgeStyle;rounded=0;orthogonalLoop=1;jettySize=auto;html=1;" edge="1" parent="WIyWlLk6GJQsqaUBKTNV-1" source="tYKw0Z54Xmcige_G44cB-150" target="tYKw0Z54Xmcige_G44cB-153">
          <mxGeometry relative="1" as="geometry" />
        </mxCell>
        <mxCell id="tYKw0Z54Xmcige_G44cB-150" value="DISPLAY-DECENAS_PUTVAL(A)" style="rounded=0;whiteSpace=wrap;html=1;" vertex="1" parent="WIyWlLk6GJQsqaUBKTNV-1">
          <mxGeometry x="125" y="600" width="130" height="60" as="geometry" />
        </mxCell>
        <mxCell id="tYKw0Z54Xmcige_G44cB-151" value="" style="shape=waypoint;sketch=0;size=6;pointerEvents=1;points=[];fillColor=default;resizable=0;rotatable=0;perimeter=centerPerimeter;snapToPoint=1;rounded=0;" vertex="1" parent="WIyWlLk6GJQsqaUBKTNV-1">
          <mxGeometry x="90" y="500" width="40" height="40" as="geometry" />
        </mxCell>
        <mxCell id="tYKw0Z54Xmcige_G44cB-152" value="" style="edgeStyle=orthogonalEdgeStyle;rounded=0;orthogonalLoop=1;jettySize=auto;html=1;" edge="1" parent="WIyWlLk6GJQsqaUBKTNV-1" source="tYKw0Z54Xmcige_G44cB-153" target="tYKw0Z54Xmcige_G44cB-156">
          <mxGeometry relative="1" as="geometry" />
        </mxCell>
        <mxCell id="tYKw0Z54Xmcige_G44cB-153" value="DESDE= &quot; B = 0&quot;&lt;br&gt;&amp;nbsp;HASTA = &quot;B&amp;lt;=9&quot;&lt;span style=&quot;white-space: pre;&quot;&gt;	&lt;/span&gt;&lt;br&gt;INCREMENTO= 1" style="shape=hexagon;perimeter=hexagonPerimeter2;whiteSpace=wrap;html=1;fixedSize=1;" vertex="1" parent="WIyWlLk6GJQsqaUBKTNV-1">
          <mxGeometry x="115" y="710" width="150" height="80" as="geometry" />
        </mxCell>
        <mxCell id="tYKw0Z54Xmcige_G44cB-154" value="" style="edgeStyle=orthogonalEdgeStyle;rounded=0;orthogonalLoop=1;jettySize=auto;html=1;" edge="1" parent="WIyWlLk6GJQsqaUBKTNV-1" source="tYKw0Z54Xmcige_G44cB-156" target="tYKw0Z54Xmcige_G44cB-157">
          <mxGeometry relative="1" as="geometry">
            <Array as="points">
              <mxPoint x="50" y="870" />
              <mxPoint x="50" y="520" />
            </Array>
          </mxGeometry>
        </mxCell>
        <mxCell id="tYKw0Z54Xmcige_G44cB-155" value="" style="edgeStyle=orthogonalEdgeStyle;rounded=0;orthogonalLoop=1;jettySize=auto;html=1;" edge="1" parent="WIyWlLk6GJQsqaUBKTNV-1" source="tYKw0Z54Xmcige_G44cB-156" target="tYKw0Z54Xmcige_G44cB-162">
          <mxGeometry relative="1" as="geometry">
            <Array as="points">
              <mxPoint x="320" y="875" />
              <mxPoint x="320" y="600" />
            </Array>
          </mxGeometry>
        </mxCell>
        <mxCell id="tYKw0Z54Xmcige_G44cB-156" value="DISPLAY-UNIDADES_PUTVAL(B)" style="rounded=0;whiteSpace=wrap;html=1;" vertex="1" parent="WIyWlLk6GJQsqaUBKTNV-1">
          <mxGeometry x="125" y="850" width="130" height="50" as="geometry" />
        </mxCell>
        <mxCell id="tYKw0Z54Xmcige_G44cB-157" value="" style="shape=waypoint;sketch=0;size=6;pointerEvents=1;points=[];fillColor=default;resizable=0;rotatable=0;perimeter=centerPerimeter;snapToPoint=1;rounded=0;" vertex="1" parent="WIyWlLk6GJQsqaUBKTNV-1">
          <mxGeometry x="90" y="500" width="40" height="40" as="geometry" />
        </mxCell>
        <mxCell id="tYKw0Z54Xmcige_G44cB-158" value="" style="edgeStyle=orthogonalEdgeStyle;rounded=0;orthogonalLoop=1;jettySize=auto;html=1;" edge="1" parent="WIyWlLk6GJQsqaUBKTNV-1" source="tYKw0Z54Xmcige_G44cB-159">
          <mxGeometry relative="1" as="geometry">
            <mxPoint x="410" y="690" as="targetPoint" />
          </mxGeometry>
        </mxCell>
        <mxCell id="tYKw0Z54Xmcige_G44cB-159" value="WAIT(500)" style="rounded=1;whiteSpace=wrap;html=1;" vertex="1" parent="WIyWlLk6GJQsqaUBKTNV-1">
          <mxGeometry x="350" y="570" width="120" height="60" as="geometry" />
        </mxCell>
        <mxCell id="tYKw0Z54Xmcige_G44cB-160" value="" style="shape=waypoint;sketch=0;size=6;pointerEvents=1;points=[];fillColor=default;resizable=0;rotatable=0;perimeter=centerPerimeter;snapToPoint=1;" vertex="1" parent="WIyWlLk6GJQsqaUBKTNV-1">
          <mxGeometry x="384" y="550" width="40" height="40" as="geometry" />
        </mxCell>
        <mxCell id="tYKw0Z54Xmcige_G44cB-162" value="" style="shape=waypoint;sketch=0;size=6;pointerEvents=1;points=[];fillColor=default;resizable=0;rotatable=0;perimeter=centerPerimeter;snapToPoint=1;rounded=0;" vertex="1" parent="WIyWlLk6GJQsqaUBKTNV-1">
          <mxGeometry x="330" y="580" width="40" height="40" as="geometry" />
        </mxCell>
        <mxCell id="tYKw0Z54Xmcige_G44cB-164" value="" style="shape=hexagon;perimeter=hexagonPerimeter2;whiteSpace=wrap;html=1;fixedSize=1;" vertex="1" parent="WIyWlLk6GJQsqaUBKTNV-1">
          <mxGeometry x="570" y="770" width="120" height="80" as="geometry" />
        </mxCell>
        <mxCell id="tYKw0Z54Xmcige_G44cB-165" value="VERDE_PUTVAL(0)" style="rounded=0;whiteSpace=wrap;html=1;" vertex="1" parent="WIyWlLk6GJQsqaUBKTNV-1">
          <mxGeometry x="354" y="690" width="120" height="60" as="geometry" />
        </mxCell>
      </root>
    </mxGraphModel>
  </diagram>
</mxfile>
